/* XPM */
static char *gromit[] = {
/* columns rows colors chars-per-pixel */
"32 32 139 2",
"   c #000000",
".  c #010000",
"X  c #020000",
"o  c #030000",
"O  c #040000",
"+  c #050000",
"@  c #060000",
"#  c #070000",
"$  c #080000",
"%  c #090000",
"&  c #0A0000",
"*  c #0B0000",
"=  c #0C0000",
"-  c #0D0000",
";  c #0E0000",
":  c #0F0000",
">  c #100000",
",  c #110000",
"<  c #120000",
"1  c #130000",
"2  c #140000",
"3  c #150000",
"4  c #160000",
"5  c #170000",
"6  c #180000",
"7  c #190000",
"8  c #1B0000",
"9  c #1D0000",
"0  c #1F0000",
"q  c #250000",
"w  c #280000",
"e  c #2A0000",
"r  c #2B0000",
"t  c #2C0000",
"y  c #2E0000",
"u  c #2F0000",
"i  c #300000",
"p  c #330000",
"a  c #360000",
"s  c #3C0000",
"d  c #3D0000",
"f  c #400000",
"g  c #410000",
"h  c #430000",
"j  c #440000",
"k  c #460000",
"l  c #480000",
"z  c #4A0000",
"x  c #4C0000",
"c  c #4E0000",
"v  c #4F0000",
"b  c #530000",
"n  c #630000",
"m  c #660000",
"M  c #6A0000",
"N  c #6C0000",
"B  c #6D0000",
"V  c #6E0000",
"C  c #730000",
"Z  c #750000",
"A  c #760000",
"S  c #770000",
"D  c #790000",
"F  c #7A0000",
"G  c #7C0000",
"H  c #7E0000",
"J  c #7F0000",
"K  c #800000",
"L  c #860000",
"P  c #920000",
"I  c #940000",
"U  c #950000",
"Y  c #980000",
"T  c #990000",
"R  c #9A0000",
"E  c #9E0000",
"W  c #9F0000",
"Q  c #A00000",
"!  c #A10000",
"~  c #A30000",
"^  c #A50000",
"/  c #A60000",
"(  c #AA0000",
")  c #AD0000",
"_  c #B20000",
"`  c #B50000",
"'  c #B70000",
"]  c #B80000",
"[  c #BA0000",
"{  c #BC0000",
"}  c #BD0000",
"|  c #C00000",
" . c #C10000",
".. c #C30000",
"X. c #C40000",
"o. c #C50000",
"O. c #C60000",
"+. c #C70000",
"@. c #C80000",
"#. c #C90000",
"$. c #CA0000",
"%. c #CC0000",
"&. c #CF0000",
"*. c #D20000",
"=. c #D30000",
"-. c #D50000",
";. c #D80000",
":. c #D90000",
">. c #DA0000",
",. c #DB0000",
"<. c #DC0000",
"1. c #DF0000",
"2. c #E00000",
"3. c #E10000",
"4. c #E20000",
"5. c #E50000",
"6. c #E60000",
"7. c #E70000",
"8. c #E80000",
"9. c #E90000",
"0. c #EB0000",
"q. c #EC0000",
"w. c #ED0000",
"e. c #EE0000",
"r. c #EF0000",
"t. c #F10000",
"y. c #F20000",
"u. c #F40000",
"i. c #F50000",
"p. c #F60000",
"a. c #F70000",
"s. c #F80000",
"d. c #F90000",
"f. c #FA0000",
"g. c #FB0000",
"h. c #FD0000",
"j. c #FE0000",
"k. c #FF0000",
"l. c None",
/* pixels */
"l.l.l.l.l.l.l.l.l.l.l.l.l.l.l.l.l.l.l.X , ; * * ; ; l.l.l.l.l.l.",
"l.l.l.l.l.l.l.l.l.l.l.l.l.l.l.l.l.; * z ~ -.8.r.=.J , ; l.l.l.l.",
"l.l.l.l.l.l.l.l.l.l.l.l.l.l.l.# * B 8.k.g.@.E ~ O.k.r.j , l.l.l.",
"l.l.l.l.l.l.l.l.l.l.l.l.l.l.; y >.k.t.D , , , , ; , L <.X l.l.l.",
"l.l.l.l.l.l.l.l.l.l.l.l.l.; A g.k.U ; ; l.l.l.l.l.l.; * 2 l.l.l.",
"l.l.l.l.l.l.l.l.l.l.l.l.* / k.r.z ; l.l.l.l.l.l.l.l.l.l.l.l.l.l.",
"l.l.l.l.l.l.l.l.l.l.l.;  .k.2.9 * l.l.l.l.l.l.l.l.l.l.l.l.l.l.l.",
"l.l.l.l.l.l.l.l.l.l.; O.k.-., * l.l.l.l.l.l.l.l.l.l.l.l.l.l.l.l.",
"l.l.l.l.l.l.l.l.l.*  .k.O.; X l.l.l.l.l.l.l.l.l.l.l.l.l.l.l.l.l.",
"l.l.l.l.l.l.l.l.* ~ k.@.; X l.l.l.l.l.l.l.l.l.l.l.l.l.l.l.l.l.l.",
"l.l.l.l.l.l.l.; A k.>., # l.l.l.l.l.l.l.l.l.l.l.l.l.l.l.l.l.l.l.",
"l.l.l.l.l.l.# y k.a.w * l.l.l.l.l.l.l.l.l.l.l.l.l.l.l.l.l.l.l.l.",
"l.l.l.l.l.l.* >.k.M ; l.l.l.l.l.l.l.l.l.l.l.l.l.l.l.l.l.l.l.l.l.",
"l.l.l.l.l.; A k.=.* l.l.l.l.l.l.l.l.l.l.l.l.l.l.l.l.l.l.l.l.l.l.",
"l.l.l.l.l.; t.k.f * l.l.l.l.l.l.l.l.l.l.l.l.l.l.l.l.l.l.l.l.l.l.",
"l.l.l.l.* D k._ ; l.l.l.l.l.l.l.l.l.l.l.l.l.l.l.l.l.l.l.l.l.l.l.",
"l.l.l.l.* 6.k.d * l.l.l.l.l.l.l.l.l.l.l.* * 6 w * l.l.l.l.l.l.l.",
"l.l.l.l.y k.<.* l.l.l.l.l.l.l.l.l.l.; * C >.k.k.-.2 l.l.l.l.l.l.",
"l.l.l.* L k.J * l.l.l.l.l.l.l.l.; 2 U a.k.k.g.k.k.P ; l.l.l.l.l.",
"l.l.l., } k.i * l.l.l.l.l.l.; y ) k.k.r.U , X b k.@., l.l.l.l.l.",
"l.l.l.* 8.k.# l.l.l.l.l.l.2 [ k.k.8.B * ; s , X k.=., l.l.l.l.l.",
"l.l.l.X k.r.* l.l.l.l.l.* 2.k.6.B * ; l.* a.A # k. .2 l.l.l.l.l.",
"l.l.l.* k.2.; l.l.l.l.l.* K j * ; l.l.l.c k.n 2 k.E , l.l.l.l.l.",
"l.l.l.X k.t.# l.l.l.l.l.l.# l.l.l.l.l., ( k.q z k.M l.l.l.l.l.l.",
"l.l.l.* 6.k.; l.l.l.l.l.l.l.l.l.l.l.l., g.>.* R k.w l.l.l.l.l.l.",
"l.l.l., [ k.c * l.l.l.l.l.l.l.l.l.l.; [ k.m ; [ a.* l.l.l.l.l.l.",
"l.l.l.* B k.` ; l.l.l.l.l.l.l.l.# * E k.%.* ; >._ 2 l.l.l.l.l.l.",
"l.l.l.l.; a.k.f ; l.l.l.l.l.# ; 2 [ k.6.6 X , ~ f l.l.l.l.l.l.l.",
"l.l.l.l., D k.r.s ; , , , # a R g.k.} , * l.l.2 ; l.l.l.l.l.l.l.",
"l.l.l.l.l.; / k.k.%.E ( } t.k.k.O.j ; l.l.l.l.l.l.l.l.l.l.l.l.l.",
"l.l.l.l.l.l.* m 2.k.k.k.g. .J q ; X l.l.l.l.l.l.l.l.l.l.l.l.l.l.",
"l.l.l.l.l.l.l.* * 2 9 , # , * l.l.l.l.l.l.l.l.l.l.l.l.l.l.l.l.l."
};
