/* XPM */
static char *gromit[] = {
/* columns rows colors chars-per-pixel */
"32 32 126 2 ",
"   c black",
".  c #010000",
"X  c #020000",
"o  c #040000",
"O  c #050000",
"+  c #060000",
"@  c #070000",
"#  c #080000",
"$  c #090000",
"%  c #0A0000",
"&  c #0B0000",
"*  c #0C0000",
"=  c #0D0000",
"-  c #0E0000",
";  c #0F0000",
":  c #100000",
">  c #110000",
",  c #120000",
"<  c #130000",
"1  c #140000",
"2  c #150000",
"3  c #160000",
"4  c #180000",
"5  c #190000",
"6  c #200000",
"7  c #220000",
"8  c #280000",
"9  c #290000",
"0  c #2C0000",
"q  c #2E0000",
"w  c #320000",
"e  c #330000",
"r  c #3A0000",
"t  c #3B0000",
"y  c #3E0000",
"u  c #3F0000",
"i  c #410000",
"p  c #430000",
"a  c #490000",
"s  c #4A0000",
"d  c #4B0000",
"f  c #4C0000",
"g  c #500000",
"h  c #520000",
"j  c #5F0000",
"k  c #650000",
"l  c #680000",
"z  c #690000",
"x  c #6B0000",
"c  c #6C0000",
"v  c #700000",
"b  c #710000",
"n  c #740000",
"m  c #760000",
"M  c #770000",
"N  c #790000",
"B  c #7C0000",
"V  c #7F0000",
"C  c #830000",
"Z  c #860000",
"A  c #8D0000",
"S  c #950000",
"D  c #980000",
"F  c #990000",
"G  c #9A0000",
"H  c #9C0000",
"J  c #A00000",
"K  c #A10000",
"L  c #A20000",
"P  c #A40000",
"I  c #A50000",
"U  c #A80000",
"Y  c #A90000",
"T  c #B00000",
"R  c #B20000",
"E  c #B40000",
"W  c #B60000",
"Q  c #B70000",
"!  c #B90000",
"~  c #BC0000",
"^  c #BE0000",
"/  c #BF0000",
"(  c #C00000",
")  c #C10000",
"_  c #C30000",
"`  c #C50000",
"'  c #C70000",
"]  c #C80000",
"[  c #CA0000",
"{  c #CD0000",
"}  c #CF0000",
"|  c #D00000",
" . c #D10000",
".. c #D20000",
"X. c #D40000",
"o. c #D50000",
"O. c #D70000",
"+. c #D90000",
"@. c #DA0000",
"#. c #DB0000",
"$. c #DF0000",
"%. c #E10000",
"&. c #E30000",
"*. c #E40000",
"=. c #E50000",
"-. c #E80000",
";. c #E90000",
":. c #EA0000",
">. c #EB0000",
",. c #EC0000",
"<. c #EE0000",
"1. c #EF0000",
"2. c #F00000",
"3. c #F20000",
"4. c #F30000",
"5. c #F40000",
"6. c #F50000",
"7. c #F60000",
"8. c #F70000",
"9. c #F80000",
"0. c #FB0000",
"q. c #FC0000",
"w. c #FD0000",
"e. c #FE0000",
"r. c red",
"t. c None",
/* pixels */
"t.t.t.t.t.t.t.t.t.t.t.t.t.t.t.t.t.t.t.X > * @ X * & t.t.t.t.t.t.",
"t.t.t.t.t.t.t.t.t.t.t.t.t.t.t.t.t.> & g F O.3.0...M > * t.t.t.t.",
"t.t.t.t.t.t.t.t.t.t.t.t.t.t.t.@ * l :.r.r.5.{ O.3.r.<.a * t.t.t.",
"t.t.t.t.t.t.t.t.t.t.t.t.t.t.> q @.r.5.F q & > 2 * l <.0.5 t.t.t.",
"t.t.t.t.t.t.t.t.t.t.t.t.t.* N 0.r.H > > t.t.t.t.t.* * i & t.t.t.",
"t.t.t.t.t.t.t.t.t.t.t.t.* U r.<.f * t.t.t.t.t.t.t.t.t.t.t.t.t.t.",
"t.t.t.t.t.t.t.t.t.t.t.* / r.&.6 * t.t.t.t.t.t.t.t.t.t.t.t.t.t.t.",
"t.t.t.t.t.t.t.t.t.t.* ( r.O.2 @ t.t.t.t.t.t.t.t.t.t.t.t.t.t.t.t.",
"t.t.t.t.t.t.t.t.t.& ( r.[ * X t.t.t.t.t.t.t.t.t.t.t.t.t.t.t.t.t.",
"t.t.t.t.t.t.t.t.& K r.' * X t.t.t.t.t.t.t.t.t.t.t.t.t.t.t.t.t.t.",
"t.t.t.t.t.t.t.* M r.@.> @ t.t.t.t.t.t.t.t.t.t.t.t.t.t.t.t.t.t.t.",
"t.t.t.t.t.t.& q 0.5.8 & t.t.t.t.t.t.t.t.t.t.t.t.t.t.t.t.t.t.t.t.",
"t.t.t.t.t.t.& @.r.l * t.t.t.t.t.t.t.t.t.t.t.t.t.t.t.t.t.t.t.t.t.",
"t.t.t.t.t.> N r...* t.t.t.t.t.t.t.t.t.t.t.t.t.t.t.t.t.t.t.t.t.t.",
"t.t.t.t.t.* 5.r.i * t.t.t.t.t.t.t.t.t.t.t.t.t.t.t.t.t.t.t.t.t.t.",
"t.t.t.t.* M r.E * t.t.t.t.t.t.t.t.t.t.t.t.t.t.t.t.t.t.t.t.t.t.t.",
"t.t.t.t.& =.r.u & t.t.t.t.t.t.t.t.t.t.t.& & 5 0 @ t.t.t.t.t.t.t.",
"t.t.t.t.w r.@.* t.t.t.t.t.t.t.t.t.t.* & M $.r.r.O.* t.t.t.t.t.t.",
"t.t.t.& Z r.B & t.t.t.t.t.t.t.t.> 2 A 5.r.r.r.r.r.A * t.t.t.t.t.",
"t.t.t.> / r.w & t.t.t.t.t.t.& 0 U 0.r.5.S * X g r.[ > t.t.t.t.t.",
"t.t.t.& :.r.@ t.t.t.t.t.t.2 R r.r.:.v & * u > X r...> t.t.t.t.t.",
"t.t.t.X r.:.& t.t.t.t.t.@ &.r.:.v & > t.& 0.M @ r.( 2 t.t.t.t.t.",
"t.t.t.& r.&.* t.t.t.t.t.@ N u & * t.t.t.a r.j 2 r.H 2 t.t.t.t.t.",
"t.t.t.X r.3.@ t.t.t.t.t.t.X t.t.t.t.t.> K r.6 a r.l t.t.t.t.t.t.",
"t.t.t.& :.r.* t.t.t.t.t.t.t.t.t.t.t.t.> 5.@.& F r.0 t.t.t.t.t.t.",
"t.t.t.> ! r.a & t.t.t.t.t.t.t.t.t.t.* ! r.k & / 3.@ t.t.t.t.t.t.",
"t.t.t.& l r.R * t.t.t.t.t.t.t.t.@ & H r.{ & * @.E > t.t.t.t.t.t.",
"t.t.t.t.* 3.r.u & t.t.t.t.t.& * 2 E r.&.2 X > F u t.t.t.t.t.t.t.",
"t.t.t.t.* v r.:.r * > * > & r S 5.r.( > & t.t.2 * t.t.t.t.t.t.t.",
"t.t.t.t.t.* I r.r.[ K I ' 5.r.r.' a & t.t.t.t.t.t.t.t.t.t.t.t.t.",
"t.t.t.t.t.t.& c &.r.r.r.0.( C 0 * X t.t.t.t.t.t.t.t.t.t.t.t.t.t.",
"t.t.t.t.t.t.t.* & * 5 > & 2 & t.t.t.t.t.t.t.t.t.t.t.t.t.t.t.t.t."
};
