/* XPM */
static char *gromit[] = {
/* columns rows colors chars-per-pixel */
"25 32 77 1",
"  c black",
". c #090000",
"X c #0D0000",
"o c #120000",
"O c #140000",
"+ c #160000",
"@ c #190000",
"# c #1B0000",
"$ c #200000",
"% c #240000",
"& c #270000",
"* c #290000",
"= c #2B0000",
"- c #2D0000",
"; c #300000",
": c #320000",
"> c #370000",
", c #390000",
"< c #3B0000",
"1 c #3E0000",
"2 c #420000",
"3 c #440000",
"4 c #470000",
"5 c #490000",
"6 c #4B0000",
"7 c #4E0000",
"8 c #520000",
"9 c #550000",
"0 c #570000",
"q c #590000",
"w c #5B0000",
"e c #600000",
"r c #650000",
"t c #6E0000",
"y c #700000",
"u c #750000",
"i c #770000",
"p c #7E0000",
"a c #870000",
"s c #890000",
"d c #8C0000",
"f c #930000",
"g c #950000",
"h c #970000",
"j c #9E0000",
"k c #A50000",
"l c #A70000",
"z c #AA0000",
"x c #B00000",
"c c #B30000",
"v c #BA0000",
"b c #BC0000",
"n c #BE0000",
"m c #C00000",
"M c #C30000",
"N c #C50000",
"B c #C70000",
"V c #CA0000",
"C c #CE0000",
"Z c #D10000",
"A c #D50000",
"S c #D70000",
"D c #DA0000",
"F c #DC0000",
"G c #E10000",
"H c #E30000",
"J c #E50000",
"K c #E80000",
"L c #EA0000",
"P c #EC0000",
"I c #EE0000",
"U c #F10000",
"Y c #F50000",
"T c #F80000",
"R c #FC0000",
"E c red",
"W c None",
/* pixels */
"WWWWWWWWWWWWWWWW3jRRRRRN#",
"WWWWWWWWWWWWWWszIRRv88wRN",
"WWWWWWWWWWWW5zRRvrWWWWW<J",
"WWWWWWWWWWWqURRcoWWWWWWW,",
"WWWWWWWWW-uRRS$WWWWWWWWWW",
"WWWWWWWW%DRRy*WWWWWWWWWWW",
"WWWWWWW;IRU8WWWWWWWWWWWWW",
"WWWWWW*DRRwWWWWWWWWWWWWWW",
"WWWWWWLRI7WWWWWWWWWWWWWWW",
"WWWWWrTRVWWWWWWWWWWWWWWWW",
"WWWWaRRCoWWWWWWWWWWWWWWWW",
"WWWWURRtWWWWWWWWWWWWWWWWW",
"WW@nRRsWWWWWWWWWWWWWWWWWW",
"WW7RRROWWWWWWWWWWWWWWWWWW",
"WWTRL3WWWWWWWWWWWWWWWWWWW",
"WtRRvWWWWWWWWWWWWWW3zzztW",
"WzRRoWWWWWWWWWWW28SRRRRRd",
",FRRXWWWWWWWWW@zIRRRRRRRR",
"8RRrWWWWWWWW5zRRRRTzzzLRR",
"VRRrWWWWWWW8URRRRRIWWWcRR",
"RRcWWWWWWW;RRRRDzzLhWrRRR",
"RRcWWWWWWW;RRRu;WW8hWwRRR",
"RRcWWWWWWWWWWWWWWWOR5hRR8",
"RRcWWWWWWWWWWWWWWWOR8RRR8",
"RRcWWWWWWWWWWWWWWWnh5RRkW",
"RRcWWWWWWWWWWWWWW7F;vRRkW",
"RRRrWWWWWWWWWWW*DRLWvRRyW",
"RRRC.WWWWWWWWWsZRRiW288WW",
",FRR3WWWWWW*yRRRTrWWWWWWW",
"WzRRLzzz,zzSRRRRyWWWWWWWW",
"WWnRRRRRRRRRRDfWWWWWWWWWW",
"WW@nRRRRRRRRy*WWWWWWWWWWW"
};
